<svg width="114" height="25" viewBox="0 0 114 25" fill="none" xmlns="http://www.w3.org/2000/svg">
	<path
		d="M94.3925 20.1892H94.3045L90.5619 7.17052H84.5245V23.5829H88.5239L88.2986 10.1145H88.3866L92.4053 23.5829H98.198V7.16971H94.172L94.3925 20.1892ZM17.583 7.16971L14.5711 23.7557H18.9661L21.1931 8.70065H21.286L23.454 23.7565H27.8231L24.8251 7.16971H17.583ZM42.1668 7.17132L40.1579 19.8525H40.0666L38.0674 7.17132H31.4325L31.0724 23.7557H35.1403L35.2421 8.84115H35.3341L38.0512 23.7557H42.1773L44.8953 8.84599L44.9857 8.84115L45.0915 23.7557H49.1611L48.8017 7.17132H42.1668ZM4.49243 11.4363C4.41572 11.0972 4.43429 10.7581 4.47547 10.5707C4.59255 10.0378 4.9446 9.45401 5.96281 9.45401C6.91723 9.45401 7.47276 10.0564 7.47276 10.9559V11.9805H11.5351V10.8227C11.5351 7.20443 8.35208 6.64001 6.04759 6.64001C3.15608 6.64001 0.795073 7.61946 0.359853 10.3253C0.241156 11.052 0.226622 11.7181 0.399418 12.5579C1.10594 15.9476 6.88493 16.9295 7.72388 19.0733C7.88133 19.473 7.83046 19.9914 7.75295 20.3046C7.62133 20.8473 7.25555 21.4117 6.16952 21.4117C5.15374 21.4117 4.53361 20.8182 4.53361 19.913L4.53119 18.3038H0.169292L0.16687 19.586C0.16687 23.2858 3.02204 24.3977 6.07989 24.3977C9.02712 24.3977 11.443 23.3819 11.8338 20.6131C12.0325 19.1774 11.8863 18.2359 11.8161 17.8847C11.1273 14.4102 4.95672 13.3831 4.49243 11.4363ZM57.4214 11.4751C57.3414 11.144 57.364 10.8081 57.402 10.6248C57.5158 10.0951 57.8647 9.5178 58.874 9.5178C59.8171 9.5178 60.371 10.1113 60.371 10.9987V12.0161H64.3897V10.8687C64.3897 7.29486 61.2358 6.73206 58.9612 6.73206C56.0947 6.73206 53.7539 7.68971 53.3284 10.3786C53.2097 11.102 53.1911 11.7633 53.3655 12.591C54.0656 15.9452 59.7872 16.9198 60.6197 19.0402C60.7715 19.4399 60.7255 19.9494 60.6512 20.2602C60.5188 20.8069 60.153 21.3543 59.0823 21.3543C58.0714 21.3543 57.4625 20.7697 57.4625 19.8743L57.4593 18.2771H53.1362V19.5481C53.1362 23.2099 55.9663 24.3088 58.9943 24.3088C61.9052 24.3088 64.3009 23.3019 64.6844 20.5622C64.8815 19.1451 64.7361 18.2117 64.6675 17.8621C63.9852 14.4247 57.8735 13.4033 57.4214 11.4751ZM75.871 19.4358C75.8742 19.6466 75.8678 19.8904 75.833 20.0681C75.7523 20.4807 75.4043 21.2615 74.273 21.2615C73.1458 21.2615 72.7938 20.4807 72.713 20.0681C72.6783 19.8904 72.6702 19.6466 72.6718 19.4358V7.16809H68.5603V19.0555C68.5538 19.3631 68.5837 19.9857 68.5982 20.1512C68.8776 23.243 71.2806 24.2418 74.2722 24.2418C77.2606 24.2418 79.6628 23.243 79.9511 20.1512C79.9656 19.9857 79.9971 19.3623 79.9923 19.0555V7.16809H75.8702V19.4358H75.871ZM108.242 14.4312V16.86H109.908V19.2654C109.913 19.4746 109.905 19.7055 109.87 19.8953C109.797 20.3418 109.382 21.0951 108.209 21.0951C107.032 21.0951 106.619 20.341 106.543 19.8953C106.512 19.7055 106.502 19.4746 106.507 19.2654V11.6769C106.507 11.4073 106.524 11.1125 106.573 10.8986C106.659 10.49 107.01 9.69463 108.193 9.69463C109.437 9.69463 109.745 10.5344 109.819 10.8986C109.867 11.1287 109.87 11.5251 109.87 11.5235V12.4578H113.97V11.9038C113.969 11.9038 113.985 11.337 113.937 10.8194C113.636 7.70021 111.108 6.71834 108.227 6.71834C105.344 6.71834 102.876 7.70828 102.518 10.8194C102.483 11.0875 102.447 11.6091 102.447 11.9038L102.445 18.8819C102.447 19.1944 102.457 19.4253 102.502 19.9776C102.77 22.9975 105.344 24.0795 108.223 24.0795C111.104 24.0795 113.679 22.9975 113.948 19.9776C113.993 19.4245 113.999 19.1936 114 18.8819V14.4312H108.242Z"
		fill="#6F97F6" />
</svg>
