<svg width="111" height="37" viewBox="0 0 111 37" fill="none" xmlns="http://www.w3.org/2000/svg">
	<path
		d="M106.913 22.5108L109.979 24.5547C108.984 26.0203 106.604 28.5348 102.489 28.5348C97.3793 28.5348 93.5739 24.5816 93.5739 19.5526C93.5739 14.2009 97.4196 10.5703 102.059 10.5703C106.725 10.5703 109.01 14.2815 109.75 16.2851L110.153 17.307L98.1323 22.2822C99.0467 24.084 100.472 24.9984 102.489 24.9984C104.506 24.9984 105.904 24.0034 106.913 22.5108ZM97.4869 19.2702L105.514 15.9355C105.071 14.8194 103.753 14.0261 102.18 14.0261C100.176 14.0261 97.3927 15.801 97.4869 19.2702Z"
		fill="#6F97F6" />
	<path d="M87.7781 1.41321H91.6507V27.7145H87.7781V1.41321Z" fill="#6F97F6" />
	<path
		d="M81.6737 11.2693H85.4118V27.2437C85.4118 33.8728 81.4989 36.6025 76.8733 36.6025C72.5166 36.6025 69.8946 33.6711 68.913 31.2911L72.3418 29.8658C72.9604 31.3315 74.4529 33.0661 76.8733 33.0661C79.845 33.0661 81.6737 31.2239 81.6737 27.7816V26.4907H81.5392C80.6518 27.5664 78.9575 28.5346 76.8061 28.5346C72.3149 28.5346 68.2003 24.6217 68.2003 19.5792C68.2003 14.5099 72.3149 10.5566 76.8061 10.5566C78.944 10.5566 80.6518 11.5113 81.5392 12.5602H81.6737V11.2693ZM81.9426 19.5792C81.9426 16.4059 79.8315 14.0931 77.1422 14.0931C74.426 14.0931 72.1401 16.4059 72.1401 19.5792C72.1401 22.7123 74.426 24.9847 77.1422 24.9847C79.8315 24.9982 81.9426 22.7123 81.9426 19.5792Z"
		fill="#6F97F6" />
	<path
		d="M46.9409 19.5117C46.9409 24.6886 42.9069 28.4939 37.9586 28.4939C33.0103 28.4939 28.9763 24.6751 28.9763 19.5117C28.9763 14.3079 33.0103 10.516 37.9586 10.516C42.9069 10.516 46.9409 14.3079 46.9409 19.5117ZM43.0145 19.5117C43.0145 16.2845 40.6748 14.0659 37.9586 14.0659C35.2424 14.0659 32.9027 16.2845 32.9027 19.5117C32.9027 22.712 35.2424 24.9575 37.9586 24.9575C40.6748 24.9575 43.0145 22.712 43.0145 19.5117Z"
		fill="#6F97F6" />
	<path
		d="M66.5601 19.5526C66.5601 24.7295 62.5261 28.5348 57.5778 28.5348C52.6295 28.5348 48.5956 24.7295 48.5956 19.5526C48.5956 14.3488 52.6295 10.5703 57.5778 10.5703C62.5261 10.5703 66.5601 14.3353 66.5601 19.5526ZM62.6202 19.5526C62.6202 16.3254 60.2806 14.1067 57.5644 14.1067C54.8482 14.1067 52.5085 16.3254 52.5085 19.5526C52.5085 22.7528 54.8482 24.9984 57.5644 24.9984C60.294 24.9984 62.6202 22.7394 62.6202 19.5526Z"
		fill="#6F97F6" />
	<path
		d="M14.2129 24.595C8.57883 24.595 4.16838 20.0501 4.16838 14.416C4.16838 8.78195 8.57883 4.23703 14.2129 4.23703C17.2518 4.23703 19.4705 5.43377 21.111 6.96667L23.8137 4.26393C21.5278 2.07215 18.4754 0.404785 14.2129 0.404785C6.49462 0.404785 -3.05176e-05 6.69774 -3.05176e-05 14.416C-3.05176e-05 22.1343 6.49462 28.4273 14.2129 28.4273C18.3813 28.4273 21.5278 27.0557 23.9885 24.5009C26.5164 21.973 27.2963 18.4231 27.2963 15.5455C27.2963 14.6446 27.1888 13.7168 27.0677 13.031H14.2129V16.7692H23.37C23.101 19.1088 22.3615 20.709 21.2723 21.7981C19.9546 23.1294 17.8703 24.595 14.2129 24.595Z"
		fill="#6F97F6" />
</svg>
