<svg width="42" height="43" viewBox="0 0 42 43" fill="none" xmlns="http://www.w3.org/2000/svg">
	<path
		d="M41.9588 21.5037C41.9588 9.98966 32.6256 0.656525 21.1116 0.656525C20.7977 0.656525 20.4853 0.664452 20.1746 0.678722L15.9103 12.3989H19.6244C21.8338 12.3989 23.0245 14.1001 22.2682 16.1779L17.0083 30.6331L12.5918 30.6323L18.2363 15.1386H14.9154L9.27097 30.6323H4.85293L11.4899 12.3989H11.4907L15.483 1.42629C6.70402 3.88226 0.26445 11.9406 0.26445 21.5037C0.26445 31.3505 7.09247 39.6023 16.2718 41.7848L20.1405 31.1531H20.1436L26.9685 12.3989H35.103C37.3148 12.3989 38.5047 14.1001 37.7484 16.1779L33.1266 28.8739C32.7747 29.8411 31.645 30.6323 30.616 30.6323H24.7527L20.4925 42.3413C20.6978 42.3469 20.9047 42.3508 21.1116 42.3508C32.6256 42.3508 41.9588 33.0169 41.9588 21.5037Z"
		fill="#6F97F6" />
	<path d="M33.7259 15.127H30.4066L25.7579 27.8817H29.0772L33.7259 15.127Z" fill="#6F97F6" />
</svg>
