<svg width="111" height="33" viewBox="0 0 111 33" fill="none" xmlns="http://www.w3.org/2000/svg">
	<path fill-rule="evenodd" clip-rule="evenodd"
		d="M19.4653 4.51606L19.4639 4.5457C19.3036 4.51597 19.1287 4.54655 19.0362 4.56965C19.0183 4.56965 18.679 4.67668 18.1253 4.85507C17.5716 3.26742 16.6249 1.82248 14.9281 1.82248H14.7674C14.303 1.21596 13.6957 0.930542 13.1956 0.930542C9.26617 0.930542 7.3729 5.8362 6.78348 8.33363C6.07997 8.55422 5.47013 8.74114 5.00371 8.88409C4.45174 9.05327 4.10064 9.16088 4.03288 9.18988C3.17554 9.45747 3.15768 9.47531 3.05052 10.278C2.96121 10.8846 0.728577 28.1346 0.728577 28.1346L18.1074 31.3813L18.162 31.3695L18.1614 31.3812L27.5921 29.3476C27.5921 29.3476 24.2878 7.01349 24.2699 6.85294C24.1985 6.69239 24.0735 6.62104 23.9663 6.58536C23.8591 6.58536 21.5193 6.40697 21.5193 6.40697C21.5193 6.40697 19.894 4.78365 19.6975 4.6231C19.6261 4.55174 19.5367 4.51606 19.4653 4.51606ZM15.6962 5.56862C16.2141 5.39023 16.7321 5.22968 17.1608 5.10481C16.7857 3.96313 16.232 2.982 15.3389 2.87497C15.5711 3.49932 15.6962 4.28422 15.6962 5.24752V5.56862ZM14.6424 5.71133C14.6424 4.53397 14.4816 3.67771 14.2494 3.07119C13.3206 3.48148 12.1954 4.58748 11.606 6.83517C12.2379 6.63191 12.857 6.44149 13.4594 6.2562L13.4595 6.25617L13.4599 6.25605C13.8619 6.13242 14.2564 6.01107 14.6424 5.88971V5.71133ZM13.6064 2.14358C13.4635 2.03654 13.2849 1.96519 13.1063 1.96519C10.2843 1.96519 8.67676 5.67565 8.03376 7.95901C8.44617 7.8249 8.86889 7.69594 9.3019 7.56384L9.30193 7.56383C9.6753 7.44992 10.0563 7.33367 10.445 7.20978C10.9987 4.21287 12.3383 2.73225 13.6064 2.14358ZM13.7849 15.238L14.928 11.7951C14.928 11.7951 14.1421 11.3313 12.6061 11.3492C8.48016 11.3492 6.444 14.0963 6.444 16.9327C6.444 18.839 7.5062 19.7013 8.43577 20.456C9.15897 21.0431 9.80188 21.5651 9.80188 22.4627C9.80188 22.9622 9.44466 23.6401 8.56947 23.6401C7.24775 23.6401 5.67597 22.2843 5.67597 22.2843L4.87222 24.9245C4.87222 24.9245 6.37255 26.7797 9.37321 26.7797C11.8559 26.7797 13.6956 24.9066 13.6956 21.9989C13.6956 19.7637 12.1903 18.6593 11.0022 17.7875C10.2275 17.219 9.58755 16.7495 9.58755 16.13C9.58755 15.8445 9.67685 14.685 11.5165 14.685C12.749 14.685 13.7849 15.238 13.7849 15.238ZM37.1112 16.7355C37.1112 17.3242 37.5935 17.7701 38.5401 18.2696C39.9869 19.108 41.1836 20.214 41.2193 21.8195C41.2193 24.7629 38.808 26.4041 35.4859 26.4041C33.1996 26.4041 31.8422 25.4943 31.8422 25.4943L32.7531 22.872C32.7531 22.872 34.2356 23.6748 35.7895 23.6748C36.8433 23.6748 37.4149 23.1039 37.4149 22.4082C37.4149 21.7303 37.0219 21.2665 35.8788 20.6422C34.4856 19.8394 33.4318 18.7156 33.4318 17.235C33.4318 14.6305 35.6823 12.7753 38.9152 12.7753C41.2371 12.7753 42.023 13.3818 42.023 13.3818L41.1657 16.0041C41.1657 16.0041 40.0762 15.5046 38.8438 15.5046C37.7899 15.5046 37.1112 15.9862 37.1112 16.7355ZM47.8815 14.7019C48.8638 13.5245 50.1498 12.7396 51.793 12.7396C53.7399 12.7396 54.8294 13.9883 54.8473 16.1111C54.8473 16.7712 54.7401 17.7344 54.5794 18.5372L53.1326 26.1722H49.4354L50.8285 18.7691C50.9536 18.2696 50.9893 17.6274 50.9893 17.1279C50.9893 16.3252 50.6678 15.7543 49.8283 15.7543C48.6495 15.7543 47.3813 17.2706 46.8991 19.7145L45.6667 26.1722H41.9694L45.5774 7.2631H49.2746L47.8457 14.684L47.8815 14.7019ZM55.7939 21.2308C55.7939 16.7533 58.741 12.7396 63.2063 12.7396C66.6892 12.7396 68.2252 15.2549 68.2074 17.9128C68.2074 22.4974 65.2603 26.4041 60.8843 26.4041C57.5622 26.4041 55.7939 24.085 55.7939 21.2308ZM59.5983 21.1595C59.5983 22.5152 60.1163 23.5856 61.3844 23.5856C63.3313 23.5856 64.4565 20.0892 64.4565 17.8236C64.4565 16.7355 64.01 15.5938 62.7062 15.5938C60.6879 15.5938 59.5983 19.0367 59.5983 21.1595ZM73.78 14.9516C73.78 14.9516 75.191 12.7396 77.6916 12.7396C80.4065 12.7396 81.5317 14.9694 81.5496 17.4669C81.5496 21.9622 78.7097 26.4219 74.3516 26.4219C72.9584 26.4219 72.1904 25.9403 72.1904 25.9403H72.1011L71.0651 31.4168H67.3679L69.922 17.8772C70.2078 16.3609 70.5114 14.3094 70.6722 12.9715H73.9586L73.7443 14.9516H73.78ZM72.619 23.0682C72.619 23.0682 73.1906 23.6212 74.1551 23.6212C76.227 23.6212 77.6559 20.214 77.638 17.8236C77.638 16.8425 77.2987 15.79 76.1555 15.79C74.8696 15.79 73.655 17.3063 73.2263 19.6254L72.619 23.0682ZM84.6931 9.58214C84.6931 8.38694 85.6398 7.44149 86.8186 7.44149C87.926 7.44149 88.6583 8.20855 88.6404 9.29672C88.6226 10.6525 87.6402 11.4374 86.4793 11.4374H86.4435C85.3897 11.4374 84.6931 10.6703 84.6931 9.58214ZM85.3361 26.1543H81.6389L84.1216 13.025H87.8367L85.3361 26.1543ZM94.6954 13.0072H97.2673L96.7315 15.8257H94.1774L92.2127 26.1722H88.5154L90.4801 15.8257H88.7476L89.3013 13.025H91.0338L91.141 12.4185C91.4268 10.8487 92.0162 9.29672 93.2843 8.22639C94.2845 7.37013 95.6063 6.99552 96.9101 6.99552C98.3033 6.99552 98.9284 7.31662 98.9284 7.31662L98.214 10.2243C98.214 10.2243 97.696 10.0281 97.0351 10.0281C95.7849 10.0281 95.0347 11.1341 94.8204 12.4007L94.6954 13.0072ZM102.84 22.0514C103.858 18.8583 106.18 13.025 106.18 13.025V13.0072H110.056L105.537 22.7293C103.93 26.0473 102.358 28.4912 100.679 30.061C99.375 31.2919 97.8032 31.9163 97.053 32.0768L96.0171 28.9372C96.6422 28.7231 97.4281 28.3842 98.1247 27.8847C98.982 27.296 99.7143 26.4933 100.143 25.6549C100.25 25.4765 100.268 25.3159 100.232 25.0483L97.9996 13.025H101.893C101.893 13.025 102.733 21.0168 102.804 22.0514H102.84Z"
		fill="#6F97F6" />
</svg>
