<svg width="106" height="46" viewBox="0 0 106 46" fill="none" xmlns="http://www.w3.org/2000/svg">
	<path fill-rule="evenodd" clip-rule="evenodd"
		d="M9.69527 23.8273C9.6952 23.7699 9.69514 23.7122 9.69514 23.654V22.9473C7.33358 22.9473 4.83879 23.4521 4.83879 26.233C4.83879 27.6419 5.56931 28.5964 6.8236 28.5964C7.74249 28.5964 8.5649 28.032 9.08407 27.1141C9.69785 26.0369 9.69667 25.0224 9.69527 23.8273ZM12.2175 31.6848C12.461 31.8133 12.7734 31.7996 12.9894 31.6068L12.9985 31.616C13.651 31.0378 14.8363 30.0053 15.5025 29.45C15.769 29.2297 15.7231 28.8763 15.5117 28.5826C15.4477 28.4941 15.3832 28.4073 15.3192 28.3211C14.7858 27.6031 14.2804 26.9228 14.2804 25.5584V20.4738C14.2804 20.3001 14.2814 20.1275 14.2824 19.9563C14.2935 18.0055 14.3037 16.224 12.8423 14.8613C11.5881 13.659 9.51136 13.2368 7.92168 13.2368C4.81582 13.2368 1.34701 14.3933 0.616486 18.2297C0.542975 18.6381 0.837021 18.8538 1.1035 18.9135L4.27368 19.2531C4.56772 19.2393 4.78366 18.9502 4.83879 18.6565C5.10987 17.3348 6.22173 16.697 7.46682 16.697C8.13762 16.697 8.90029 16.9448 9.30001 17.5459C9.70819 18.1472 9.70198 18.948 9.6964 19.6665C9.69577 19.7486 9.69514 19.8297 9.69514 19.9093V20.3315C9.38931 20.3664 9.06824 20.3992 8.73738 20.433C7.02036 20.6085 5.03928 20.8109 3.55234 21.465C1.50781 22.3461 0.0697479 24.1496 0.0697479 26.7975C0.0697479 30.1888 2.21076 31.8822 4.95825 31.8822C7.28305 31.8822 8.55111 31.3361 10.343 29.5096C10.4375 29.6455 10.5219 29.7703 10.6013 29.8877C11.0237 30.5121 11.3048 30.9278 12.2175 31.6848ZM52.5201 23.654L52.5202 23.8273C52.5216 25.0224 52.5228 26.0369 51.909 27.1141C51.3898 28.032 50.5628 28.5964 49.6485 28.5964C48.3942 28.5964 47.6591 27.6419 47.6591 26.233C47.6591 23.4521 50.1539 22.9473 52.5201 22.9473V23.654ZM55.8143 31.6068C55.5983 31.7996 55.2859 31.8133 55.0424 31.6848C54.1196 30.9194 53.8391 30.5029 53.4106 29.8668C53.3357 29.7555 53.2562 29.6374 53.1679 29.5096C51.376 31.3361 50.1034 31.8822 47.7832 31.8822C45.0311 31.8822 42.8947 30.1888 42.8947 26.7975C42.8947 24.1496 44.3281 22.3461 46.3773 21.465C47.8642 20.8109 49.8453 20.6085 51.5623 20.433C51.8932 20.3992 52.2142 20.3664 52.5201 20.3315V19.9093C52.5201 19.8304 52.5207 19.7501 52.5213 19.6686V19.6684C52.5268 18.9494 52.533 18.1477 52.1203 17.5459C51.7252 16.9448 50.9625 16.697 50.2871 16.697C49.042 16.697 47.9348 17.3348 47.6637 18.6565C47.6086 18.9502 47.3926 19.2393 47.094 19.2531L43.9284 18.9135C43.6619 18.8538 43.3633 18.6381 43.4414 18.2297C44.1673 14.3933 47.6407 13.2368 50.7466 13.2368C52.3363 13.2368 54.413 13.659 55.6673 14.8613C57.1287 16.224 57.1185 18.0055 57.1073 19.9563V19.9564C57.1063 20.1276 57.1053 20.3001 57.1053 20.4738V25.5584C57.1053 26.9228 57.6107 27.6031 58.1441 28.3211L58.1442 28.3212C58.2082 28.4074 58.2726 28.4941 58.3366 28.5826C58.5434 28.8763 58.5893 29.2297 58.3228 29.45C57.6567 30.0053 56.4713 31.0378 55.8189 31.616L55.8143 31.6068ZM18.6449 31.6528H21.9116C22.2608 31.6528 22.541 31.3821 22.541 31.0471V22.1718L22.5408 21.9606C22.5376 20.0463 22.5334 17.5552 24.7969 17.5552C26.8803 17.5552 26.8448 19.7716 26.8158 21.5763C26.8125 21.7814 26.8093 21.9812 26.8093 22.1718L26.8139 31.0471C26.8139 31.3683 27.0712 31.6299 27.402 31.6528H30.664C31.0132 31.6528 31.2935 31.3821 31.2935 31.0471V22.1718L31.2933 22.0474L31.2931 21.9418V21.9415V21.9415C31.2907 21.0048 31.2875 19.7426 31.5967 18.9641C31.9321 18.1197 32.7591 17.5919 33.5494 17.5919C34.4958 17.5919 35.2263 17.9086 35.4699 19.0329C35.5956 19.5722 35.5784 20.8191 35.567 21.6536V21.6537V21.6541V21.6544V21.6548V21.6552C35.5642 21.8568 35.5617 22.0343 35.5617 22.1718V31.0471C35.5617 31.3683 35.8236 31.6299 36.1498 31.6528H39.4119C39.7611 31.6528 40.0413 31.3821 40.0413 31.0471L40.0459 20.4785C40.0459 20.2208 40.0503 19.9579 40.0547 19.6925V19.6924V19.6922V19.6921V19.692C40.081 18.1091 40.1087 16.435 39.2235 15.2286C38.3092 13.962 36.8114 13.3975 35.4423 13.3975C33.5172 13.3975 31.7208 14.3842 30.9305 16.4998C30.0116 14.3842 28.7344 13.3975 26.6898 13.3975C24.6775 13.3975 23.1843 14.3842 22.3894 16.4998H22.3297V14.3108C22.3067 14.0079 22.054 13.7647 21.737 13.7509H18.6909C18.3417 13.7509 18.0614 14.0171 18.0614 14.3521V31.0976C18.0844 31.3958 18.3325 31.6299 18.6449 31.6528ZM61.0802 16.7067V14.3112C61.0802 13.9486 61.3559 13.7054 61.6867 13.7054H72.424C72.7685 13.7054 73.0442 13.9532 73.0442 14.3112V16.3625C73.0396 16.7067 72.7502 17.1564 72.2356 17.8677L66.6717 25.8022C68.7392 25.7517 70.9216 26.0592 72.7961 27.1147C73.2188 27.3533 73.3337 27.7021 73.3658 28.0462V30.6023C73.3658 30.9511 72.9799 31.3595 72.5756 31.1484C69.2722 29.4184 64.8845 29.2302 61.2319 31.1668C60.8597 31.3687 60.4692 30.9649 60.4692 30.6161V28.1885C60.4692 27.7984 60.4738 27.133 60.8643 26.541L67.3103 17.3078H61.7005C61.3559 17.3078 61.0802 17.0646 61.0802 16.7067ZM60.9751 34.9253C62.9667 34.6893 67.3228 34.1732 68.0994 35.168C68.8846 36.1724 67.2284 40.3028 66.4881 42.1493L66.4867 42.1525C66.2616 42.7124 66.744 42.9372 67.2494 42.515C70.5436 39.7662 71.389 34.0069 70.7182 33.1763C70.0474 32.3503 64.2952 31.639 60.7896 34.1033C60.2475 34.4796 60.3394 35.0027 60.9412 34.9293L60.9751 34.9253ZM42.8716 45.0072C50.526 45.0072 59.4163 42.5979 65.5499 38.0823C66.5652 37.3297 65.6969 36.21 64.6585 36.6505C57.7852 39.5646 50.31 40.9688 43.5148 40.9688C33.4392 40.9688 23.6851 38.2108 15.7964 33.6263C15.1073 33.2225 14.5927 33.9292 15.167 34.4478C22.4768 41.0423 32.1389 45.0072 42.8716 45.0072ZM82.288 13.3975C87.1352 13.3975 89.7586 17.5552 89.7586 22.8418C89.7586 27.9495 86.8595 32.0016 82.288 32.0016C77.5281 32.0016 74.9369 27.8439 74.9369 22.6629C74.9369 17.4497 77.5603 13.3975 82.288 13.3975ZM82.3156 16.8164C79.9081 16.8164 79.7565 20.093 79.7565 22.1351L79.7564 22.2103C79.7561 24.2867 79.7553 28.5506 82.288 28.5506C84.8196 28.5506 84.939 25.0262 84.939 22.8785C84.939 21.4651 84.8793 19.7763 84.452 18.4363C84.0844 17.2707 83.3539 16.8164 82.3156 16.8164ZM92.7899 31.6528H96.0427C96.3919 31.6528 96.6768 31.3821 96.6814 31.0471V22.0296C96.6814 20.9007 96.7411 19.8819 97.2005 18.8585C97.5635 18.0509 98.294 17.5185 99.0889 17.5185C101.171 17.5185 101.151 19.8014 101.136 21.5928C101.135 21.7424 101.133 21.8885 101.133 22.0296V31.1251C101.166 31.4096 101.414 31.6299 101.712 31.6528H104.988C105.31 31.6528 105.581 31.4188 105.618 31.1251V20.584C105.618 18.9641 105.618 16.7108 104.763 15.3708C103.844 13.9253 102.415 13.3975 100.95 13.3975C98.6937 13.3975 97.4119 14.4897 96.4976 16.7797H96.4379V14.219C96.3735 13.9574 96.1392 13.7647 95.8544 13.7509H92.8266C92.4958 13.7509 92.2247 13.9895 92.1972 14.297L92.2018 31.0471C92.2018 31.3683 92.4636 31.6299 92.7899 31.6528Z"
		fill="#6F97F6" />
</svg>
