<svg width="354" height="340" viewBox="0 0 354 340" fill="none" xmlns="http://www.w3.org/2000/svg">
	<circle cx="19" cy="5" r="5" fill="#172A58" />
	<circle cx="19" cy="35" r="5" fill="#172A58" />
	<circle cx="19" cy="65" r="5" fill="#172A58" />
	<circle cx="19" cy="95" r="5" fill="#172A58" />
	<circle cx="19" cy="125" r="5" fill="#172A58" />
	<circle cx="19" cy="155" r="5" fill="#172A58" />
	<circle cx="19" cy="185" r="5" fill="#172A58" />
	<circle cx="19" cy="215" r="5" fill="#172A58" />
	<circle cx="19" cy="245" r="5" fill="#172A58" />
	<circle cx="19" cy="275" r="5" fill="#172A58" />
	<circle cx="19" cy="305" r="5" fill="#172A58" />
	<circle cx="19" cy="335" r="5" fill="#172A58" />
	<circle cx="49" cy="5" r="5" fill="#172A58" />
	<circle cx="49" cy="35" r="5" fill="#172A58" />
	<circle cx="49" cy="65" r="5" fill="#172A58" />
	<circle cx="49" cy="95" r="5" fill="#172A58" />
	<circle cx="49" cy="125" r="5" fill="#172A58" />
	<circle cx="49" cy="155" r="5" fill="#172A58" />
	<circle cx="49" cy="185" r="5" fill="#172A58" />
	<circle cx="49" cy="215" r="5" fill="#172A58" />
	<circle cx="49" cy="245" r="5" fill="#172A58" />
	<circle cx="49" cy="275" r="5" fill="#172A58" />
	<circle cx="49" cy="305" r="5" fill="#172A58" />
	<circle cx="49" cy="335" r="5" fill="#172A58" />
	<circle cx="79" cy="5" r="5" fill="#172A58" />
	<circle cx="79" cy="35" r="5" fill="#172A58" />
	<circle cx="79" cy="65" r="5" fill="#172A58" />
	<circle cx="79" cy="95" r="5" fill="#172A58" />
	<circle cx="79" cy="125" r="5" fill="#172A58" />
	<circle cx="79" cy="155" r="5" fill="#172A58" />
	<circle cx="79" cy="185" r="5" fill="#172A58" />
	<circle cx="79" cy="215" r="5" fill="#172A58" />
	<circle cx="79" cy="245" r="5" fill="#172A58" />
	<circle cx="79" cy="275" r="5" fill="#172A58" />
	<circle cx="79" cy="305" r="5" fill="#172A58" />
	<circle cx="79" cy="335" r="5" fill="#172A58" />
	<circle cx="109" cy="5" r="5" fill="#172A58" />
	<circle cx="109" cy="35" r="5" fill="#172A58" />
	<circle cx="109" cy="65" r="5" fill="#172A58" />
	<circle cx="109" cy="95" r="5" fill="#172A58" />
	<circle cx="109" cy="125" r="5" fill="#172A58" />
	<circle cx="109" cy="155" r="5" fill="#172A58" />
	<circle cx="109" cy="185" r="5" fill="#172A58" />
	<circle cx="109" cy="215" r="5" fill="#172A58" />
	<circle cx="109" cy="245" r="5" fill="#172A58" />
	<circle cx="109" cy="275" r="5" fill="#172A58" />
	<circle cx="109" cy="305" r="5" fill="#172A58" />
	<circle cx="109" cy="335" r="5" fill="#172A58" />
	<circle cx="139" cy="5" r="5" fill="#172A58" />
	<circle cx="139" cy="35" r="5" fill="#172A58" />
	<circle cx="139" cy="65" r="5" fill="#172A58" />
	<circle cx="139" cy="95" r="5" fill="#172A58" />
	<circle cx="139" cy="125" r="5" fill="#172A58" />
	<circle cx="139" cy="155" r="5" fill="#172A58" />
	<circle cx="139" cy="185" r="5" fill="#172A58" />
	<circle cx="139" cy="215" r="5" fill="#172A58" />
	<circle cx="139" cy="245" r="5" fill="#172A58" />
	<circle cx="139" cy="275" r="5" fill="#172A58" />
	<circle cx="139" cy="305" r="5" fill="#172A58" />
	<circle cx="139" cy="335" r="5" fill="#172A58" />
	<circle cx="169" cy="5" r="5" fill="#172A58" />
	<circle cx="169" cy="35" r="5" fill="#172A58" />
	<circle cx="169" cy="65" r="5" fill="#172A58" />
	<circle cx="169" cy="95" r="5" fill="#172A58" />
	<circle cx="169" cy="125" r="5" fill="#172A58" />
	<circle cx="169" cy="155" r="5" fill="#172A58" />
	<circle cx="169" cy="185" r="5" fill="#172A58" />
	<circle cx="169" cy="215" r="5" fill="#172A58" />
	<circle cx="169" cy="245" r="5" fill="#172A58" />
	<circle cx="169" cy="275" r="5" fill="#172A58" />
	<circle cx="169" cy="305" r="5" fill="#172A58" />
	<circle cx="169" cy="335" r="5" fill="#172A58" />
	<circle cx="199" cy="5" r="5" fill="#172A58" />
	<circle cx="229" cy="5" r="5" fill="#172A58" />
	<circle cx="259" cy="5" r="5" fill="#172A58" />
	<circle cx="289" cy="5" r="5" fill="#172A58" />
	<circle cx="319" cy="5" r="5" fill="#172A58" />
	<circle cx="349" cy="5" r="5" fill="#172A58" />
	<circle cx="199" cy="35" r="5" fill="#172A58" />
	<circle cx="229" cy="35" r="5" fill="#172A58" />
	<circle cx="259" cy="35" r="5" fill="#172A58" />
	<circle cx="289" cy="35" r="5" fill="#172A58" />
	<circle cx="319" cy="35" r="5" fill="#172A58" />
	<circle cx="349" cy="35" r="5" fill="#172A58" />
	<circle cx="199" cy="65" r="5" fill="#172A58" />
	<circle cx="229" cy="65" r="5" fill="#172A58" />
	<circle cx="259" cy="65" r="5" fill="#172A58" />
	<circle cx="289" cy="65" r="5" fill="#172A58" />
	<circle cx="319" cy="65" r="5" fill="#172A58" />
	<circle cx="349" cy="65" r="5" fill="#172A58" />
	<circle cx="199" cy="95" r="5" fill="#172A58" />
	<circle cx="229" cy="95" r="5" fill="#172A58" />
	<circle cx="259" cy="95" r="5" fill="#172A58" />
	<circle cx="289" cy="95" r="5" fill="#172A58" />
	<circle cx="319" cy="95" r="5" fill="#172A58" />
	<circle cx="349" cy="95" r="5" fill="#172A58" />
	<circle cx="199" cy="125" r="5" fill="#172A58" />
	<circle cx="229" cy="125" r="5" fill="#172A58" />
	<circle cx="259" cy="125" r="5" fill="#172A58" />
	<circle cx="289" cy="125" r="5" fill="#172A58" />
	<circle cx="319" cy="125" r="5" fill="#172A58" />
	<circle cx="349" cy="125" r="5" fill="#172A58" />
	<circle cx="199" cy="155" r="5" fill="#172A58" />
	<circle cx="229" cy="155" r="5" fill="#172A58" />
	<circle cx="259" cy="155" r="5" fill="#172A58" />
	<circle cx="289" cy="155" r="5" fill="#172A58" />
	<circle cx="319" cy="155" r="5" fill="#172A58" />
	<circle cx="349" cy="155" r="5" fill="#172A58" />
	<circle cx="199" cy="185" r="5" fill="#172A58" />
	<circle cx="229" cy="185" r="5" fill="#172A58" />
	<circle cx="259" cy="185" r="5" fill="#172A58" />
	<circle cx="289" cy="185" r="5" fill="#172A58" />
	<circle cx="319" cy="185" r="5" fill="#172A58" />
	<circle cx="349" cy="185" r="5" fill="#172A58" />
	<circle cx="199" cy="215" r="5" fill="#172A58" />
	<circle cx="229" cy="215" r="5" fill="#172A58" />
	<circle cx="259" cy="215" r="5" fill="#172A58" />
	<circle cx="289" cy="215" r="5" fill="#172A58" />
	<circle cx="319" cy="215" r="5" fill="#172A58" />
	<circle cx="349" cy="215" r="5" fill="#172A58" />
	<circle cx="199" cy="245" r="5" fill="#172A58" />
	<circle cx="229" cy="245" r="5" fill="#172A58" />
	<circle cx="259" cy="245" r="5" fill="#172A58" />
	<circle cx="289" cy="245" r="5" fill="#172A58" />
	<circle cx="319" cy="245" r="5" fill="#172A58" />
	<circle cx="349" cy="245" r="5" fill="#172A58" />
	<circle cx="199" cy="275" r="5" fill="#172A58" />
	<circle cx="229" cy="275" r="5" fill="#172A58" />
	<circle cx="259" cy="275" r="5" fill="#172A58" />
	<circle cx="289" cy="275" r="5" fill="#172A58" />
	<circle cx="319" cy="275" r="5" fill="#172A58" />
	<circle cx="349" cy="275" r="5" fill="#172A58" />
	<circle cx="199" cy="305" r="5" fill="#172A58" />
	<circle cx="229" cy="305" r="5" fill="#172A58" />
	<circle cx="259" cy="305" r="5" fill="#172A58" />
	<circle cx="289" cy="305" r="5" fill="#172A58" />
	<circle cx="319" cy="305" r="5" fill="#172A58" />
	<circle cx="349" cy="305" r="5" fill="#172A58" />
	<circle cx="199" cy="335" r="5" fill="#172A58" />
	<circle cx="229" cy="335" r="5" fill="#172A58" />
	<circle cx="259" cy="335" r="5" fill="#172A58" />
	<circle cx="289" cy="335" r="5" fill="#172A58" />
	<circle cx="319" cy="335" r="5" fill="#172A58" />
	<circle cx="349" cy="335" r="5" fill="#172A58" />
</svg>
