<svg width="1280" height="701" viewBox="0 0 1280 701" fill="none" xmlns="http://www.w3.org/2000/svg">
	<path d="M416.644 701C33.9014 701 -192 487.611 -192 213.296V0H1708V464.284C1123 464.284 882.949 701 416.644 701Z" fill="#0C1A3B" />
	<circle cx="19" cy="217" r="5" fill="#172A58" />
	<circle cx="19" cy="247" r="5" fill="#172A58" />
	<circle cx="19" cy="277" r="5" fill="#172A58" />
	<circle cx="19" cy="307" r="5" fill="#172A58" />
	<circle cx="19" cy="337" r="5" fill="#172A58" />
	<circle cx="19" cy="367" r="5" fill="#172A58" />
	<circle cx="19" cy="397" r="5" fill="#172A58" />
	<circle cx="19" cy="427" r="5" fill="#172A58" />
	<circle cx="19" cy="457" r="5" fill="#172A58" />
	<circle cx="19" cy="487" r="5" fill="#172A58" />
	<circle cx="19" cy="517" r="5" fill="#172A58" />
	<circle cx="19" cy="547" r="5" fill="#172A58" />
	<circle cx="49" cy="217" r="5" fill="#172A58" />
	<circle cx="49" cy="247" r="5" fill="#172A58" />
	<circle cx="49" cy="277" r="5" fill="#172A58" />
	<circle cx="49" cy="307" r="5" fill="#172A58" />
	<circle cx="49" cy="337" r="5" fill="#172A58" />
	<circle cx="49" cy="367" r="5" fill="#172A58" />
	<circle cx="49" cy="397" r="5" fill="#172A58" />
	<circle cx="49" cy="427" r="5" fill="#172A58" />
	<circle cx="49" cy="457" r="5" fill="#172A58" />
	<circle cx="49" cy="487" r="5" fill="#172A58" />
	<circle cx="49" cy="517" r="5" fill="#172A58" />
	<circle cx="49" cy="547" r="5" fill="#172A58" />
	<circle cx="79" cy="217" r="5" fill="#172A58" />
	<circle cx="79" cy="247" r="5" fill="#172A58" />
	<circle cx="79" cy="277" r="5" fill="#172A58" />
	<circle cx="79" cy="307" r="5" fill="#172A58" />
	<circle cx="79" cy="337" r="5" fill="#172A58" />
	<circle cx="79" cy="367" r="5" fill="#172A58" />
	<circle cx="79" cy="397" r="5" fill="#172A58" />
	<circle cx="79" cy="427" r="5" fill="#172A58" />
	<circle cx="79" cy="457" r="5" fill="#172A58" />
	<circle cx="79" cy="487" r="5" fill="#172A58" />
	<circle cx="79" cy="517" r="5" fill="#172A58" />
	<circle cx="79" cy="547" r="5" fill="#172A58" />
	<circle cx="109" cy="217" r="5" fill="#172A58" />
	<circle cx="109" cy="247" r="5" fill="#172A58" />
	<circle cx="109" cy="277" r="5" fill="#172A58" />
	<circle cx="109" cy="307" r="5" fill="#172A58" />
	<circle cx="109" cy="337" r="5" fill="#172A58" />
	<circle cx="109" cy="367" r="5" fill="#172A58" />
	<circle cx="109" cy="397" r="5" fill="#172A58" />
	<circle cx="109" cy="427" r="5" fill="#172A58" />
	<circle cx="109" cy="457" r="5" fill="#172A58" />
	<circle cx="109" cy="487" r="5" fill="#172A58" />
	<circle cx="109" cy="517" r="5" fill="#172A58" />
	<circle cx="109" cy="547" r="5" fill="#172A58" />
	<circle cx="139" cy="217" r="5" fill="#172A58" />
	<circle cx="139" cy="247" r="5" fill="#172A58" />
	<circle cx="139" cy="277" r="5" fill="#172A58" />
	<circle cx="139" cy="307" r="5" fill="#172A58" />
	<circle cx="139" cy="337" r="5" fill="#172A58" />
	<circle cx="139" cy="367" r="5" fill="#172A58" />
	<circle cx="139" cy="397" r="5" fill="#172A58" />
	<circle cx="139" cy="427" r="5" fill="#172A58" />
	<circle cx="139" cy="457" r="5" fill="#172A58" />
	<circle cx="139" cy="487" r="5" fill="#172A58" />
	<circle cx="139" cy="517" r="5" fill="#172A58" />
	<circle cx="139" cy="547" r="5" fill="#172A58" />
	<circle cx="169" cy="217" r="5" fill="#172A58" />
	<circle cx="169" cy="247" r="5" fill="#172A58" />
	<circle cx="169" cy="277" r="5" fill="#172A58" />
	<circle cx="169" cy="307" r="5" fill="#172A58" />
	<circle cx="169" cy="337" r="5" fill="#172A58" />
	<circle cx="169" cy="367" r="5" fill="#172A58" />
	<circle cx="169" cy="397" r="5" fill="#172A58" />
	<circle cx="169" cy="427" r="5" fill="#172A58" />
	<circle cx="169" cy="457" r="5" fill="#172A58" />
	<circle cx="169" cy="487" r="5" fill="#172A58" />
	<circle cx="169" cy="517" r="5" fill="#172A58" />
	<circle cx="169" cy="547" r="5" fill="#172A58" />
	<circle cx="199" cy="217" r="5" fill="#172A58" />
	<circle cx="229" cy="217" r="5" fill="#172A58" />
	<circle cx="259" cy="217" r="5" fill="#172A58" />
	<circle cx="289" cy="217" r="5" fill="#172A58" />
	<circle cx="319" cy="217" r="5" fill="#172A58" />
	<circle cx="349" cy="217" r="5" fill="#172A58" />
	<circle cx="199" cy="247" r="5" fill="#172A58" />
	<circle cx="229" cy="247" r="5" fill="#172A58" />
	<circle cx="259" cy="247" r="5" fill="#172A58" />
	<circle cx="289" cy="247" r="5" fill="#172A58" />
	<circle cx="319" cy="247" r="5" fill="#172A58" />
	<circle cx="349" cy="247" r="5" fill="#172A58" />
	<circle cx="199" cy="277" r="5" fill="#172A58" />
	<circle cx="229" cy="277" r="5" fill="#172A58" />
	<circle cx="259" cy="277" r="5" fill="#172A58" />
	<circle cx="289" cy="277" r="5" fill="#172A58" />
	<circle cx="319" cy="277" r="5" fill="#172A58" />
	<circle cx="349" cy="277" r="5" fill="#172A58" />
	<circle cx="199" cy="307" r="5" fill="#172A58" />
	<circle cx="229" cy="307" r="5" fill="#172A58" />
	<circle cx="259" cy="307" r="5" fill="#172A58" />
	<circle cx="289" cy="307" r="5" fill="#172A58" />
	<circle cx="319" cy="307" r="5" fill="#172A58" />
	<circle cx="349" cy="307" r="5" fill="#172A58" />
	<circle cx="199" cy="337" r="5" fill="#172A58" />
	<circle cx="229" cy="337" r="5" fill="#172A58" />
	<circle cx="259" cy="337" r="5" fill="#172A58" />
	<circle cx="289" cy="337" r="5" fill="#172A58" />
	<circle cx="319" cy="337" r="5" fill="#172A58" />
	<circle cx="349" cy="337" r="5" fill="#172A58" />
	<circle cx="199" cy="367" r="5" fill="#172A58" />
	<circle cx="229" cy="367" r="5" fill="#172A58" />
	<circle cx="259" cy="367" r="5" fill="#172A58" />
	<circle cx="289" cy="367" r="5" fill="#172A58" />
	<circle cx="319" cy="367" r="5" fill="#172A58" />
	<circle cx="349" cy="367" r="5" fill="#172A58" />
	<circle cx="199" cy="397" r="5" fill="#172A58" />
	<circle cx="229" cy="397" r="5" fill="#172A58" />
	<circle cx="259" cy="397" r="5" fill="#172A58" />
	<circle cx="289" cy="397" r="5" fill="#172A58" />
	<circle cx="319" cy="397" r="5" fill="#172A58" />
	<circle cx="349" cy="397" r="5" fill="#172A58" />
	<circle cx="199" cy="427" r="5" fill="#172A58" />
	<circle cx="229" cy="427" r="5" fill="#172A58" />
	<circle cx="259" cy="427" r="5" fill="#172A58" />
	<circle cx="289" cy="427" r="5" fill="#172A58" />
	<circle cx="319" cy="427" r="5" fill="#172A58" />
	<circle cx="349" cy="427" r="5" fill="#172A58" />
	<circle cx="199" cy="457" r="5" fill="#172A58" />
	<circle cx="229" cy="457" r="5" fill="#172A58" />
	<circle cx="259" cy="457" r="5" fill="#172A58" />
	<circle cx="289" cy="457" r="5" fill="#172A58" />
	<circle cx="319" cy="457" r="5" fill="#172A58" />
	<circle cx="349" cy="457" r="5" fill="#172A58" />
	<circle cx="199" cy="487" r="5" fill="#172A58" />
	<circle cx="229" cy="487" r="5" fill="#172A58" />
	<circle cx="259" cy="487" r="5" fill="#172A58" />
	<circle cx="289" cy="487" r="5" fill="#172A58" />
	<circle cx="319" cy="487" r="5" fill="#172A58" />
	<circle cx="349" cy="487" r="5" fill="#172A58" />
	<circle cx="199" cy="517" r="5" fill="#172A58" />
	<circle cx="229" cy="517" r="5" fill="#172A58" />
	<circle cx="259" cy="517" r="5" fill="#172A58" />
	<circle cx="289" cy="517" r="5" fill="#172A58" />
	<circle cx="319" cy="517" r="5" fill="#172A58" />
	<circle cx="349" cy="517" r="5" fill="#172A58" />
	<circle cx="199" cy="547" r="5" fill="#172A58" />
	<circle cx="229" cy="547" r="5" fill="#172A58" />
	<circle cx="259" cy="547" r="5" fill="#172A58" />
	<circle cx="289" cy="547" r="5" fill="#172A58" />
	<circle cx="319" cy="547" r="5" fill="#172A58" />
	<circle cx="349" cy="547" r="5" fill="#172A58" />
</svg>
