<svg width="469" height="470" viewBox="0 0 469 470" fill="none" xmlns="http://www.w3.org/2000/svg">
	<style>
		@keyframes hover {
			0% {
				transform: translateY(0%);
			}

			50% {
				transform: translateY(1%);
			}

			100% {
				transform: translateY(0%);
			}
		}

		.hover {
			animation: hover 4s ease infinite;
		}

		.hover1 {
			animation-delay: 1s;
		}

	</style>
	<circle class="hover hover1" cx="428" cy="41" r="40" stroke="#7AC6BD" stroke-width="2" />
	<circle cx="66.5" cy="383.5" r="66.5" fill="#FBBC79" />
	<circle class="hover hover2" cx="445" cy="111" r="13" fill="#EE795F" />
	<path
		d="M362.223 249.782H103.243C102.419 249.779 101.63 249.451 101.047 248.868C100.464 248.285 100.136 247.496 100.133 246.672C100.136 245.847 100.464 245.058 101.047 244.475C101.63 243.892 102.419 243.564 103.243 243.561H362.223C363.047 243.564 363.837 243.892 364.42 244.475C365.002 245.058 365.331 245.847 365.333 246.672C365.331 247.496 365.002 248.285 364.42 248.868C363.837 249.451 363.047 249.779 362.223 249.782Z"
		fill="#407BFF" />
	<path opacity="0.3"
		d="M362.224 249.782H301.598C300.774 249.779 299.984 249.451 299.402 248.868C298.819 248.285 298.49 247.496 298.488 246.672C298.49 245.847 298.819 245.058 299.402 244.475C299.984 243.892 300.774 243.564 301.598 243.561H362.224C363.048 243.564 363.838 243.892 364.421 244.475C365.003 245.058 365.332 245.847 365.334 246.672C365.332 247.496 365.003 248.285 364.421 248.868C363.838 249.451 363.048 249.779 362.224 249.782Z"
		fill="#263238" />
	<path d="M355.648 257.581H156.473V279.259H355.648V257.581Z" fill="#263238" />
	<path opacity="0.1" d="M355.648 257.581H156.473V279.259H355.648V257.581Z" fill="white" />
	<path d="M352.753 387.453H358.712L358.469 249.781H350.213L352.753 387.453Z" fill="#263238" />
	<path opacity="0.1" d="M352.753 387.453H358.712L358.469 249.781H350.213L352.753 387.453Z" fill="white" />
	<path d="M297.833 387.453H291.865L305.352 249.781H313.608L297.833 387.453Z" fill="#263238" />
	<path opacity="0.2" d="M297.833 387.453H291.865L305.352 249.781H313.608L297.833 387.453Z" fill="white" />
	<path d="M154.401 387.453H160.36L160.117 249.781H151.86L154.401 387.453Z" fill="#263238" />
	<path opacity="0.1" d="M154.401 387.453H160.36L160.117 249.781H151.86L154.401 387.453Z" fill="white" />
	<path d="M99.4804 387.453H93.5121L106.999 249.781H115.256L99.4804 387.453Z" fill="#263238" />
	<path opacity="0.2" d="M99.4804 387.453H93.5121L106.999 249.781H115.256L99.4804 387.453Z" fill="white" />
	<path d="M267.228 243.562H253.479L247.978 216.681H261.726L267.228 243.562Z" fill="#263238" />
	<path
		d="M285.468 238.022H225.822C225.359 238.027 224.899 237.936 224.472 237.754C224.045 237.573 223.661 237.304 223.343 236.966C223.025 236.628 222.781 236.228 222.626 235.791C222.471 235.354 222.408 234.889 222.441 234.426L224.72 196.665C224.79 195.697 225.221 194.791 225.926 194.126C226.632 193.46 227.561 193.083 228.531 193.069H288.186C288.649 193.065 289.108 193.157 289.535 193.34C289.961 193.522 290.345 193.79 290.662 194.128C290.98 194.466 291.224 194.865 291.38 195.302C291.535 195.738 291.599 196.202 291.567 196.665L289.288 234.426C289.216 235.395 288.783 236.301 288.076 236.966C287.369 237.632 286.439 238.009 285.468 238.022Z"
		fill="#263238" />
	<path
		d="M284.535 238.022H224.89C224.426 238.027 223.966 237.936 223.539 237.754C223.112 237.573 222.728 237.304 222.41 236.966C222.092 236.628 221.848 236.228 221.693 235.791C221.538 235.354 221.475 234.889 221.509 234.426L223.788 196.665C223.858 195.697 224.288 194.791 224.993 194.126C225.699 193.46 226.628 193.083 227.598 193.069H287.253C287.716 193.065 288.176 193.157 288.602 193.34C289.028 193.522 289.412 193.79 289.729 194.128C290.047 194.466 290.291 194.865 290.447 195.302C290.602 195.738 290.666 196.202 290.634 196.665L288.355 234.426C288.283 235.395 287.85 236.301 287.143 236.966C286.436 237.632 285.506 238.009 284.535 238.022Z"
		fill="#F99F8B" />
	<path
		d="M224.88 236.154C224.672 236.156 224.467 236.115 224.276 236.035C224.085 235.954 223.912 235.836 223.768 235.687C223.628 235.532 223.52 235.351 223.451 235.154C223.382 234.956 223.353 234.747 223.367 234.538L225.646 196.777C225.68 196.278 225.899 195.811 226.26 195.465C226.621 195.12 227.098 194.922 227.598 194.909H287.252C287.461 194.906 287.667 194.946 287.859 195.027C288.051 195.109 288.224 195.229 288.367 195.382C288.509 195.534 288.618 195.714 288.687 195.911C288.756 196.108 288.782 196.317 288.765 196.525L286.486 234.286C286.454 234.785 286.235 235.254 285.874 235.6C285.512 235.946 285.034 236.144 284.534 236.154H224.88Z"
		fill="white" fill-opacity="0.6" />
	<path opacity="0.2" d="M251.077 193.069L254.953 206.341L266.46 193.069H251.077Z" fill="black" />
	<path
		d="M158.362 160.846C158.455 161.565 158.904 162.107 159.38 162.07C159.856 162.032 160.155 161.416 160.062 160.697C159.968 159.978 159.52 159.436 159.053 159.473C158.586 159.511 158.278 160.146 158.362 160.846Z"
		fill="#263238" />
	<path d="M159.144 161.92C159.985 163.784 161.072 165.527 162.376 167.103C161.348 168.14 159.471 167.72 159.471 167.72L159.144 161.92Z" fill="#A02724" />
	<path
		d="M155.98 158.109C155.909 158.122 155.836 158.122 155.765 158.109C155.661 158.064 155.579 157.98 155.536 157.876C155.492 157.771 155.491 157.654 155.531 157.549C155.774 156.926 156.165 156.373 156.669 155.935C157.173 155.497 157.777 155.189 158.427 155.036C158.481 155.027 158.537 155.028 158.591 155.041C158.645 155.053 158.696 155.076 158.741 155.108C158.787 155.14 158.825 155.181 158.854 155.228C158.884 155.275 158.903 155.327 158.912 155.382C158.932 155.493 158.906 155.607 158.841 155.7C158.777 155.793 158.678 155.856 158.567 155.877C158.058 156 157.587 156.247 157.196 156.595C156.805 156.944 156.506 157.384 156.325 157.875C156.291 157.939 156.241 157.994 156.181 158.035C156.121 158.075 156.052 158.101 155.98 158.109Z"
		fill="#263238" />
	<path
		d="M137.197 172.12L142.801 176.416L150.451 182.272C150.032 183.152 149.778 184.102 149.704 185.074C149.433 187.222 149.162 188.81 153.935 190.127C154.442 190.248 154.903 190.512 155.264 190.888C155.625 191.264 155.87 191.736 155.971 192.247C156.158 193.518 155.382 195.049 150.974 195.806C146.704 196.444 142.342 195.701 138.524 193.686C136.656 192.752 136.656 191.631 137.44 189.735C139.794 184.346 138.654 177.471 137.197 172.12Z"
		fill="#B55B52" />
	<path d="M130.759 191.434C131.835 189.363 132.723 187.2 133.411 184.97C133.411 184.97 147.608 184.195 152.297 185.596C156.986 186.997 159.9 193.068 159.9 193.068L130.759 191.434Z"
		fill="#3B5CAA" />
	<path
		d="M136.701 201.998C136.356 203.044 135.973 204.323 135.608 205.5L134.553 209.143C133.899 211.571 133.264 214.009 132.769 216.437C132.242 218.812 131.84 221.212 131.564 223.629C131.276 225.849 131.207 228.092 131.359 230.326C131.414 231.271 131.558 232.209 131.788 233.128C131.844 233.315 131.891 233.52 131.956 233.698L132.143 234.202C132.099 234.112 132.049 234.024 131.994 233.941C131.898 233.804 131.796 233.673 131.686 233.548C131.565 233.404 131.427 233.275 131.275 233.165C131.088 233.035 131.06 233.053 131.097 233.1C131.371 233.297 131.665 233.463 131.975 233.595C132.395 233.782 132.909 233.969 133.423 234.146C134.478 234.501 135.646 234.828 136.851 235.145C141.67 236.36 146.928 237.303 152.056 238.396L151.888 244.868C149.149 245.234 146.393 245.461 143.631 245.55C140.829 245.652 138.023 245.605 135.225 245.41C133.744 245.311 132.269 245.13 130.808 244.868C130.042 244.728 129.248 244.569 128.407 244.336C127.44 244.086 126.502 243.739 125.605 243.299C124.942 242.98 124.315 242.588 123.737 242.132C123.328 241.806 122.95 241.443 122.607 241.048C122.393 240.795 122.193 240.53 122.009 240.254C121.916 240.096 121.813 239.937 121.729 239.778L121.608 239.554L120.963 238.237C120.767 237.798 120.608 237.368 120.44 236.929C119.851 235.294 119.425 233.605 119.17 231.886C118.236 225.394 118.974 219.604 119.945 213.972C120.468 211.17 121.085 208.368 121.813 205.706C122.187 204.351 122.579 202.997 122.999 201.661C123.42 200.326 123.868 199.037 124.41 197.571L136.701 201.998Z"
		fill="#B55B52" />
	<path d="M128.061 190.275C136.887 187.94 142.127 195.169 139.138 207.087C136.15 219.005 135.15 219.453 135.15 219.453L116.947 216.418C119.188 204.743 119.011 192.657 128.061 190.275Z"
		fill="#3B5CAA" />
	<path
		d="M156.577 235.808L155.204 235.686C151.3 235.686 150.627 236.751 148.227 238.983L147.293 243.896C153.597 247.119 156.978 243.579 156.988 243.579H162.825L160.771 238.909C160.412 238.065 159.834 237.332 159.096 236.786C158.359 236.241 157.489 235.903 156.577 235.808Z"
		fill="#B55B52" />
	<path
		d="M134.785 162.826C136.373 171.334 136.868 176.397 141.744 180.198C149.066 185.905 159.153 180.478 160.143 171.624C161.031 163.657 158.275 151.076 149.477 148.844C147.515 148.359 145.462 148.377 143.509 148.895C141.555 149.413 139.763 150.415 138.299 151.808C136.835 153.202 135.746 154.942 135.132 156.867C134.517 158.793 134.398 160.842 134.785 162.826Z"
		fill="#B55B52" />
	<path
		d="M151.643 165.796C157.714 165.31 155.94 158.912 154.063 157.576C156.911 156.493 158.873 151.972 156.136 148.872C157.742 144.678 153.147 139.625 145.087 140.382C139.203 140.923 138.549 144.033 138.549 144.033C138.549 144.033 131.497 143.296 128.564 149.114C126.061 154.102 129.097 156.764 129.097 156.764C129.097 156.764 123.829 158.296 125.286 165.17C126.836 172.586 132.534 170.867 132.534 170.867C132.534 170.867 131.254 177.667 138.96 177.76C145.619 177.844 145.703 172.857 145.703 172.857C145.703 172.857 154.333 172.053 151.643 165.796Z"
		fill="#263238" />
	<path
		d="M147.124 166.291C147.805 168.116 149.135 169.626 150.86 170.531C153.083 171.671 154.783 169.308 154.39 166.879C154.035 164.703 152.139 161.91 149.795 161.78C147.451 161.649 146.293 164.031 147.124 166.291Z"
		fill="#B55B52" />
	<path d="M237.676 376.759L245.979 373.387L240.113 353.446L231.81 356.808L237.676 376.759Z" fill="#B55B52" />
	<path opacity="0.2" d="M234.659 366.485L243.046 363.402L240.113 353.446L231.81 356.808L234.659 366.485Z" fill="black" />
	<path
		d="M245.261 370.062L235.762 373.359C235.682 373.384 235.608 373.424 235.544 373.477C235.48 373.53 235.426 373.595 235.387 373.669C235.348 373.743 235.324 373.824 235.316 373.907C235.308 373.99 235.317 374.073 235.342 374.153L237.49 381.831C237.628 382.226 237.916 382.551 238.291 382.736C238.667 382.922 239.1 382.952 239.498 382.821C242.776 381.607 244.103 380.953 248.156 379.197C252.146 377.528 256.049 375.657 259.85 373.593C263.016 371.725 261.111 368.54 259.57 369.063C255.918 370.296 249.931 371.099 246.895 370.053C246.365 369.874 245.789 369.877 245.261 370.062Z"
		fill="#263238" />
	<path
		d="M170.986 261.717C170.986 261.717 233.742 267.321 235.367 285.376C238.636 322.11 243.652 357.527 243.652 357.527L230.884 362.197C230.884 362.197 215.258 321.848 215.464 293.081C197.363 287.972 149.766 295.472 141.986 281.509C135.112 269.18 141.145 260.326 141.145 260.326L170.986 261.717Z"
		fill="#263238" />
	<path d="M229.932 365.102L245.829 359.732L245.138 352.493L227.214 358.266L229.932 365.102Z" fill="#DCEBDF" />
	<path
		d="M248.76 370.445C247.996 370.69 247.206 370.85 246.407 370.921C246.366 370.926 246.325 370.919 246.288 370.901C246.252 370.883 246.221 370.854 246.201 370.818C246.181 370.785 246.17 370.746 246.17 370.706C246.17 370.667 246.181 370.628 246.201 370.594C246.407 370.314 248.237 367.848 249.405 367.886C249.538 367.894 249.668 367.934 249.782 368.004C249.896 368.075 249.991 368.172 250.059 368.287C250.18 368.452 250.256 368.646 250.277 368.85C250.298 369.053 250.265 369.259 250.18 369.445C249.846 369.942 249.341 370.298 248.76 370.445ZM246.892 370.445C248.508 370.221 249.61 369.791 249.862 369.259C249.915 369.137 249.933 369.002 249.915 368.871C249.897 368.739 249.843 368.615 249.76 368.511C249.731 368.451 249.686 368.4 249.63 368.364C249.574 368.328 249.509 368.308 249.442 368.306C248.77 368.278 247.612 369.483 246.846 370.445H246.892Z"
		fill="#407BFF" />
	<path
		d="M246.454 370.912C246.42 370.921 246.385 370.921 246.351 370.912C246.317 370.906 246.284 370.892 246.257 370.871C246.229 370.849 246.207 370.822 246.192 370.79C246.192 370.687 245.118 368.324 245.679 367.204C245.751 367.06 245.855 366.935 245.983 366.838C246.111 366.741 246.259 366.674 246.416 366.643C246.588 366.586 246.775 366.589 246.944 366.651C247.114 366.714 247.258 366.833 247.35 366.989C247.864 367.848 247.22 370.043 246.557 370.837C246.531 370.872 246.495 370.898 246.454 370.912ZM246.454 367.082C246.374 367.109 246.301 367.152 246.238 367.209C246.176 367.265 246.125 367.333 246.09 367.409C245.753 368.072 246.164 369.492 246.473 370.286C246.986 369.408 247.36 367.773 247.024 367.213C246.958 367.11 246.846 366.989 246.547 367.054L246.454 367.082Z"
		fill="#407BFF" />
	<path d="M193.245 382.689L202.118 382.269L203.565 361.319L194.692 361.739L193.245 382.689Z" fill="#B55B52" />
	<path
		d="M202.323 380.757L192.273 380.439C192.19 380.433 192.106 380.443 192.026 380.469C191.947 380.495 191.873 380.537 191.81 380.591C191.746 380.646 191.694 380.713 191.657 380.788C191.619 380.862 191.597 380.944 191.591 381.027L190.853 388.957C190.846 389.168 190.88 389.378 190.954 389.575C191.028 389.772 191.14 389.953 191.285 390.106C191.429 390.26 191.602 390.384 191.794 390.47C191.986 390.557 192.193 390.604 192.404 390.61C195.906 390.657 197.578 390.508 201.996 390.61C204.714 390.694 210.066 391.096 213.792 390.61C217.519 390.125 216.949 386.473 215.324 386.333C211.485 386.024 206.339 383.372 203.883 381.308C203.441 380.95 202.891 380.756 202.323 380.757Z"
		fill="#263238" />
	<path
		d="M205.481 382.409C204.678 382.363 203.883 382.231 203.108 382.017C203.069 382.008 203.033 381.987 203.005 381.958C202.977 381.929 202.958 381.892 202.951 381.852C202.944 381.812 202.949 381.771 202.966 381.734C202.982 381.696 203.009 381.665 203.043 381.643C203.333 381.447 205.92 379.775 207.003 380.261C207.126 380.314 207.233 380.398 207.315 380.504C207.396 380.611 207.45 380.736 207.47 380.868C207.524 381.065 207.525 381.272 207.473 381.469C207.42 381.666 207.316 381.845 207.171 381.989C206.682 382.34 206.077 382.49 205.481 382.409ZM203.687 381.727C205.275 382.101 206.489 382.092 206.891 381.727C206.983 381.629 207.047 381.508 207.077 381.377C207.106 381.245 207.1 381.108 207.059 380.98C207.05 380.915 207.025 380.854 206.986 380.801C206.947 380.749 206.895 380.708 206.835 380.681C206.219 380.401 204.706 381.101 203.613 381.727H203.687Z"
		fill="#407BFF" />
	<path
		d="M203.117 382.026C203.084 382.034 203.048 382.034 203.015 382.026C202.985 382.007 202.96 381.981 202.942 381.95C202.924 381.919 202.914 381.884 202.912 381.849C202.912 381.746 202.791 379.168 203.715 378.327C203.836 378.209 203.985 378.123 204.149 378.077C204.312 378.031 204.484 378.028 204.649 378.066C204.828 378.076 204.998 378.146 205.132 378.264C205.266 378.383 205.356 378.544 205.387 378.72C205.555 379.7 204.163 381.522 203.258 382.026C203.213 382.044 203.162 382.044 203.117 382.026ZM204.453 378.468C204.369 378.462 204.285 378.474 204.206 378.503C204.127 378.532 204.056 378.577 203.995 378.636C203.444 379.131 203.323 380.606 203.323 381.438C204.117 380.803 205.051 379.411 204.939 378.766C204.939 378.645 204.845 378.505 204.546 378.458L204.453 378.468Z"
		fill="#407BFF" />
	<path opacity="0.2" d="M194.695 361.739L203.577 361.319L202.736 373.302L193.891 373.293L194.695 361.739Z" fill="black" />
	<path
		d="M150.142 260.718C150.142 260.718 217.764 271.057 216.69 286.627C214.756 314.647 205.36 369.408 205.36 369.408L192.041 369.594C192.041 369.594 188.894 313.424 193.909 292.95C177.275 292.95 130.351 292.371 123.953 283.825C116.873 274.382 124.149 259.541 124.149 259.541L150.142 260.718Z"
		fill="#263238" />
	<path d="M190.471 370.641L206.592 370.389L207.386 361.87L189.696 362.562L190.471 370.641Z" fill="#DCEBDF" />
	<path
		d="M162.049 189.332C156.604 188.268 132.049 188.576 132.049 188.576C129.595 188.509 127.204 189.365 125.351 190.975C123.497 192.585 122.314 194.832 122.037 197.271C121.178 204.846 125.988 221.77 126.156 230.4C126.361 241.001 124.335 245.298 124.129 259.569L170.988 261.717C170.988 233.016 169.736 209.255 168.606 197.86C168.204 193.853 167.495 190.388 162.049 189.332Z"
		fill="#407BFF" />
	<path opacity="0.3"
		d="M162.049 189.332C156.604 188.268 132.049 188.576 132.049 188.576C129.595 188.509 127.204 189.365 125.351 190.975C123.497 192.585 122.314 194.832 122.037 197.271C121.178 204.846 125.988 221.77 126.156 230.4C126.361 241.001 124.335 245.298 124.129 259.569L170.988 261.717C170.988 233.016 169.736 209.255 168.606 197.86C168.204 193.853 167.495 190.388 162.049 189.332Z"
		fill="white" />
	<path
		d="M168.467 198.373C169.933 203.416 171.409 208.6 172.931 213.662C174.454 218.725 176.013 223.815 177.769 228.606C178.199 229.83 178.703 230.969 179.114 232.146L179.833 233.799L179.927 234.005V234.108V234.164V234.098C179.765 233.81 179.564 233.546 179.329 233.314C179.011 233.006 178.89 232.978 178.862 232.978C179.07 233.165 179.311 233.314 179.572 233.416C180.029 233.637 180.5 233.827 180.982 233.986C182.038 234.35 183.224 234.677 184.429 235.004C189.313 236.247 194.647 237.199 199.84 238.311L199.672 244.783C196.884 245.159 194.078 245.387 191.266 245.465C188.419 245.575 185.569 245.522 182.729 245.306C181.218 245.198 179.715 245.005 178.227 244.727C177.442 244.578 176.63 244.391 175.752 244.139C174.71 243.847 173.707 243.433 172.763 242.906C172.01 242.474 171.319 241.943 170.708 241.327C170.241 240.846 169.84 240.306 169.513 239.721L169.195 239.133L168.14 237.134C167.523 235.826 166.851 234.509 166.272 233.211C165.123 230.586 164.114 227.99 163.105 225.384C162.097 222.778 161.237 220.172 160.369 217.557C158.641 212.299 157.081 207.096 155.699 201.679L168.467 198.373Z"
		fill="#B55B52" />
	<path d="M155.158 193.171C161.565 186.633 169.756 190.201 173.277 202.007C176.799 213.813 176.163 214.672 176.163 214.672L158.95 221.35C154.887 210.105 148.601 199.831 155.158 193.171Z"
		fill="#3B5CAA" />
	<path
		d="M204.416 235.808L203.043 235.686C199.139 235.686 198.476 236.751 196.075 238.983L195.141 243.896C201.446 247.119 204.827 243.579 204.827 243.579H210.674L208.61 238.909C208.253 238.063 207.675 237.33 206.937 236.784C206.2 236.238 205.329 235.901 204.416 235.808Z"
		fill="#B55B52" />
	<path
		d="M126.184 296.369H186.035C187.35 296.369 188.417 295.302 188.417 293.987V290.139C188.417 288.823 187.35 287.757 186.035 287.757H126.184C124.869 287.757 123.802 288.823 123.802 290.139V293.987C123.802 295.302 124.869 296.369 126.184 296.369Z"
		fill="#407BFF" />
	<path d="M126.454 392.244H123.802L126.856 296.359H130.527L126.454 392.244Z" fill="#407BFF" />
	<path opacity="0.4" d="M126.454 392.244H123.802L126.856 296.359H130.527L126.454 392.244Z" fill="white" />
	<path d="M150.85 392.244H153.503L150.458 296.359H146.787L150.85 392.244Z" fill="#407BFF" />
	<path opacity="0.4" d="M150.85 392.244H153.503L150.458 296.359H146.787L150.85 392.244Z" fill="white" />
	<path d="M161.368 392.244H158.715L161.769 296.359H165.44L161.368 392.244Z" fill="#407BFF" />
	<path opacity="0.4" d="M161.368 392.244H158.715L161.769 296.359H165.44L161.368 392.244Z" fill="white" />
	<path d="M185.763 392.244H188.416L185.371 296.359H181.7L185.763 392.244Z" fill="#407BFF" />
	<path opacity="0.4" d="M185.763 392.244H188.416L185.371 296.359H181.7L185.763 392.244Z" fill="white" />
	<g opacity="0.3">
		<path opacity="0.3" d="M126.858 296.359H130.528L130.351 300.432H126.727L126.858 296.359Z" fill="#407BFF" />
		<path opacity="0.3" d="M150.582 300.431H146.958L146.79 296.359H150.451L150.582 300.431Z" fill="#407BFF" />
		<path opacity="0.3" d="M165.433 296.359L165.265 300.431H161.641L161.771 296.359H165.433Z" fill="#407BFF" />
		<path opacity="0.3" d="M185.502 300.431H181.869L181.701 296.359H185.371L185.502 300.431Z" fill="#407BFF" />
	</g>
	<path
		d="M363.325 179.162H213.727C212.564 179.174 211.412 178.945 210.343 178.489C209.273 178.033 208.31 177.36 207.514 176.513C206.718 175.666 206.106 174.663 205.717 173.568C205.329 172.472 205.171 171.308 205.255 170.149L210.962 75.469C211.141 73.0432 212.223 70.7726 213.993 69.1044C215.763 67.4361 218.094 66.4913 220.526 66.4559H370.088C371.25 66.4438 372.402 66.6729 373.472 67.1288C374.541 67.5847 375.504 68.2574 376.3 69.1044C377.096 69.9515 377.708 70.9544 378.097 72.0499C378.486 73.1454 378.643 74.3096 378.559 75.469L372.843 170.186C372.657 172.598 371.579 174.854 369.819 176.514C368.06 178.174 365.744 179.118 363.325 179.162Z"
		fill="#6F97F6" />
	<path d="M233.743 159.146L247.538 206.341L288.466 159.146H233.743Z" fill="#6F97F6" />
	<path opacity="0.1"
		d="M356.031 141.064H272.195C271.543 141.071 270.897 140.942 270.297 140.687C269.697 140.431 269.157 140.054 268.71 139.579C268.263 139.105 267.92 138.542 267.702 137.928C267.483 137.314 267.394 136.661 267.441 136.011L270.644 82.941C270.745 81.581 271.351 80.3079 272.343 79.3727C273.335 78.4374 274.642 77.9077 276.006 77.888H359.841C360.495 77.874 361.145 77.9976 361.748 78.2506C362.351 78.5036 362.894 78.8805 363.343 79.3569C363.791 79.8333 364.134 80.3984 364.35 81.0159C364.565 81.6333 364.649 82.2891 364.595 82.941L361.392 136.011C361.292 137.371 360.686 138.644 359.693 139.579C358.701 140.514 357.394 141.044 356.031 141.064Z"
		fill="white" />
	<path opacity="0.1"
		d="M311.18 163.955H227.335C226.683 163.961 226.038 163.832 225.44 163.576C224.841 163.32 224.302 162.942 223.856 162.468C223.41 161.993 223.068 161.431 222.85 160.818C222.632 160.204 222.543 159.552 222.59 158.903L225.793 105.833C225.894 104.474 226.498 103.202 227.489 102.267C228.479 101.332 229.783 100.802 231.145 100.78H314.99C315.644 100.767 316.292 100.892 316.894 101.145C317.496 101.399 318.038 101.776 318.485 102.252C318.933 102.728 319.275 103.293 319.49 103.91C319.705 104.527 319.789 105.182 319.735 105.833L316.532 158.903C316.431 160.261 315.827 161.533 314.836 162.468C313.846 163.403 312.542 163.933 311.18 163.955Z"
		fill="white" />
	<g opacity="0.5">
		<path opacity="0.5"
			d="M226.226 74.694C226.209 75.4112 225.924 76.0961 225.428 76.6145C224.932 77.1329 224.261 77.4473 223.545 77.496C223.205 77.4791 222.872 77.3909 222.568 77.237C222.264 77.0832 221.996 76.8671 221.781 76.6028C221.566 76.3386 221.409 76.032 221.32 75.7032C221.232 75.3743 221.213 75.0305 221.266 74.694C221.287 73.9781 221.573 73.2955 222.068 72.778C222.563 72.2604 223.232 71.9448 223.947 71.892C224.287 71.9088 224.62 71.997 224.924 72.1509C225.227 72.3048 225.496 72.5209 225.71 72.7851C225.925 73.0494 226.082 73.3559 226.171 73.6847C226.26 74.0136 226.278 74.3575 226.226 74.694Z"
			fill="white" />
		<path opacity="0.5"
			d="M235.368 74.6936C235.349 75.4101 235.064 76.0939 234.569 76.6119C234.073 77.1298 233.403 77.4448 232.688 77.4956C232.347 77.48 232.013 77.3927 231.708 77.2394C231.403 77.0861 231.134 76.8702 230.918 76.6058C230.702 76.3414 230.544 76.0344 230.455 75.7049C230.365 75.3755 230.347 75.0308 230.399 74.6936C230.421 73.9777 230.706 73.2951 231.201 72.7776C231.696 72.2601 232.366 71.9444 233.08 71.8916C233.42 71.9086 233.754 71.9969 234.058 72.1506C234.362 72.3044 234.631 72.5203 234.846 72.7843C235.062 73.0484 235.22 73.3548 235.31 73.6836C235.4 74.0125 235.42 74.3566 235.368 74.6936Z"
			fill="white" />
		<path opacity="0.5"
			d="M244.577 74.6936C244.561 75.4108 244.276 76.0958 243.78 76.6141C243.284 77.1325 242.613 77.4469 241.897 77.4956C241.557 77.4788 241.224 77.3905 240.92 77.2367C240.616 77.0828 240.348 76.8667 240.133 76.6024C239.918 76.3382 239.761 76.0317 239.672 75.7028C239.584 75.374 239.565 75.0301 239.618 74.6936C239.639 73.9777 239.925 73.2951 240.42 72.7776C240.915 72.2601 241.584 71.9444 242.299 71.8916C242.639 71.9084 242.972 71.9967 243.275 72.1505C243.579 72.3044 243.848 72.5205 244.062 72.7848C244.277 73.049 244.434 73.3555 244.523 73.6844C244.612 74.0132 244.63 74.3571 244.577 74.6936Z"
			fill="white" />
	</g>
	<path opacity="0.3"
		d="M362.167 178.284H212.605C211.412 178.293 210.229 178.055 209.131 177.586C208.033 177.116 207.045 176.424 206.227 175.554C205.41 174.684 204.781 173.654 204.381 172.529C203.98 171.405 203.817 170.209 203.901 169.018L209.617 74.3387C209.796 71.8535 210.901 69.5259 212.714 67.8157C214.526 66.1056 216.913 65.137 219.405 65.1015H368.929C370.123 65.0921 371.306 65.3297 372.403 65.7994C373.501 66.2692 374.49 66.9608 375.307 67.8309C376.125 68.701 376.753 69.7308 377.154 70.8556C377.554 71.9804 377.718 73.1758 377.634 74.3667L371.927 169.046C371.746 171.526 370.644 173.848 368.838 175.558C367.032 177.267 364.653 178.239 362.167 178.284ZM219.405 65.5778C217.029 65.6068 214.75 66.5272 213.02 68.1566C211.29 69.7861 210.236 72.0058 210.065 74.3761L204.349 169.056C204.266 170.184 204.418 171.316 204.796 172.383C205.174 173.449 205.768 174.425 206.543 175.249C207.317 176.073 208.254 176.728 209.294 177.172C210.335 177.615 211.456 177.838 212.587 177.826H362.167C364.542 177.795 366.82 176.874 368.549 175.245C370.279 173.616 371.334 171.397 371.507 169.028L377.214 74.3481C377.294 73.2168 377.138 72.0811 376.757 71.0131C376.375 69.945 375.776 68.9678 374.998 68.1434C374.219 67.3189 373.277 66.6652 372.233 66.2235C371.188 65.7819 370.063 65.562 368.929 65.5778H219.405Z"
		fill="#263238" />
	<path
		d="M281.182 122.934C280.547 124.279 279.968 125.428 279.314 126.67C278.661 127.912 278.007 129.033 277.334 130.201C275.961 132.526 274.532 134.871 273.001 137.056C272.228 138.177 271.438 139.288 270.628 140.39C269.778 141.474 268.975 142.576 268.069 143.631C266.302 145.819 264.395 147.89 262.362 149.833C261.849 150.338 261.288 150.767 260.746 151.3C260.209 151.804 259.641 152.275 259.047 152.71L257.253 154.064L256.702 154.447C256.458 154.602 256.206 154.742 255.946 154.867C255.433 155.114 254.894 155.302 254.339 155.428C253.243 155.684 252.103 155.693 251.003 155.454C249.903 155.215 248.87 154.734 247.979 154.046C247.537 153.697 247.133 153.302 246.774 152.869L246.522 152.532L246.4 152.364L246.354 152.29L246.185 151.991L245.513 150.777C245.307 150.384 245.167 150.011 244.999 149.628C244.411 148.218 243.93 146.767 243.561 145.285C242.911 142.584 242.455 139.84 242.197 137.075C241.924 134.381 241.806 131.675 241.842 128.968C241.862 128.2 242.156 127.464 242.67 126.893C243.184 126.323 243.886 125.955 244.648 125.855C245.409 125.756 246.182 125.932 246.825 126.352C247.468 126.772 247.94 127.408 248.156 128.146V128.258C249.394 133.018 250.925 137.697 252.742 142.268C253.158 143.235 253.642 144.171 254.19 145.07C254.311 145.257 254.433 145.481 254.554 145.64L254.909 146.069L254.993 146.181L254.946 146.107L254.844 145.966C254.697 145.775 254.528 145.603 254.339 145.453C253.966 145.152 253.533 144.935 253.069 144.818C252.604 144.719 252.124 144.719 251.659 144.818C251.417 144.869 251.182 144.947 250.958 145.051C250.837 145.051 250.734 145.173 250.622 145.229C250.51 145.285 250.342 145.425 250.463 145.322L251.631 144.183C252.023 143.828 252.406 143.398 252.789 142.987C253.172 142.576 253.564 142.174 253.938 141.735C257.017 138.042 259.82 134.128 262.325 130.023C263.604 127.94 264.865 125.82 266.061 123.672L267.864 120.44L269.573 117.283L269.666 117.115C270.477 115.664 271.817 114.582 273.406 114.096C274.995 113.609 276.711 113.756 278.195 114.504C279.679 115.253 280.816 116.546 281.369 118.113C281.923 119.681 281.849 121.401 281.164 122.915L281.182 122.934Z"
		fill="#263238" />
	<path
		d="M242.719 128.557L238.171 125.951L243.065 120.954C244.499 122.017 245.829 123.215 247.034 124.531C247.318 124.832 247.528 125.196 247.646 125.593C247.764 125.989 247.788 126.408 247.716 126.816C247.643 127.224 247.476 127.608 247.228 127.94C246.98 128.271 246.658 128.54 246.287 128.725C245.723 128.987 245.104 129.108 244.483 129.079C243.861 129.049 243.256 128.87 242.719 128.557Z"
		fill="#FFC3BD" />
	<path
		d="M237.135 120.6L239.61 118.835C239.931 118.601 240.332 118.503 240.726 118.562C241.119 118.622 241.473 118.834 241.711 119.152L243.065 120.955L238.171 125.952L236.63 122.44C236.49 122.122 236.464 121.765 236.556 121.43C236.648 121.095 236.852 120.802 237.135 120.6Z"
		fill="#FFC3BD" />
	<path
		d="M271.384 118.75C271.755 117.53 272.455 116.435 273.407 115.586C274.36 114.738 275.528 114.168 276.783 113.94C278.596 113.539 280.434 113.258 282.284 113.099C287.855 112.882 293.433 112.982 298.993 113.398C301.907 113.594 304.887 114.005 307.259 114.398H307.343C308.599 114.606 309.722 115.304 310.464 116.339C311.207 117.374 311.508 118.661 311.303 119.918C310.136 126.661 306.708 138.392 306.334 149.46C305.839 163.993 306.063 172.362 305.811 175.864L268.405 175.145C265.799 139.625 269.04 126.792 271.384 118.75Z"
		fill="white" />
	<path
		d="M308.341 113.846H308.219C305.716 113.435 302.615 112.996 299.505 112.791L297.842 112.697C296.208 119.46 286.466 130.836 283.515 148.077C282.375 133.666 281.497 118.6 283.169 112.725C280.526 112.806 277.888 113.027 275.268 113.389C273.882 113.702 272.604 114.377 271.564 115.345C270.523 116.313 269.758 117.539 269.346 118.899C267.048 125.661 262.659 140.811 265.358 178.059H306.93C307.201 174.323 306.23 166.477 307.734 154.401C309.181 142.707 311.264 126.791 312.488 119.684C312.707 118.36 312.394 117.004 311.617 115.91C310.84 114.817 309.662 114.075 308.341 113.846Z"
		fill="#263238" />
	<path opacity="0.2"
		d="M282.63 176.116C282.567 176.119 282.506 176.097 282.459 176.055C282.412 176.013 282.383 175.955 282.378 175.892C281.5 165.384 283.144 150.3 283.162 150.142C283.166 150.11 283.176 150.079 283.191 150.05C283.207 150.022 283.228 149.997 283.253 149.978C283.278 149.958 283.307 149.943 283.338 149.934C283.369 149.925 283.401 149.923 283.433 149.927C283.498 149.934 283.558 149.966 283.6 150.017C283.642 150.067 283.663 150.132 283.657 150.198C283.657 150.347 281.995 165.394 282.873 175.845C282.877 175.878 282.874 175.911 282.865 175.942C282.855 175.974 282.84 176.003 282.819 176.029C282.798 176.054 282.772 176.075 282.743 176.09C282.713 176.105 282.681 176.114 282.649 176.116H282.63Z"
		fill="white" />
	<path opacity="0.3" d="M306.874 128.632C305.333 135.618 306.155 145.295 307.808 154.121C309.032 144.211 310.704 131.35 311.927 123.392C310.218 122.253 308.098 123.056 306.874 128.632Z"
		fill="black" />
	<path
		d="M283.078 113.053C287.926 111.988 288.766 108.999 288.421 105.693C288.335 104.867 288.201 104.047 288.019 103.237L294.071 98.2864L298.527 94.6625C297.312 100.024 295.977 109.803 299.638 113.455C299.638 113.455 296.649 118.358 288.337 117.76C281.313 117.256 283.078 113.053 283.078 113.053Z"
		fill="#FFC3BD" />
	<path d="M290.447 116.527L289.102 117.797L293.398 119.413L292.838 117.779L290.447 116.527Z" fill="#E0E0E0" />
	<path d="M293.735 121.692C293.735 121.692 292.044 117.423 290.447 116.517C293.588 115.768 296.466 114.176 298.769 111.913L301.319 112.931C301.319 112.931 302.122 117.881 293.735 121.692Z"
		fill="#F5F5F5" />
	<path d="M288.092 116.19L289.101 117.797L284.581 118.189L285.487 116.76L288.092 116.19Z" fill="#E0E0E0" />
	<path d="M282.312 120.487C283.969 118.722 285.927 117.267 288.094 116.19C285.637 115.462 285.488 112.081 285.488 112.081L283.106 112.538C283.106 112.538 278.735 116.788 282.312 120.487Z"
		fill="#F5F5F5" />
	<path opacity="0.2"
		d="M288.018 103.227C288.199 104.04 288.333 104.864 288.419 105.693C290.679 105.282 293.706 102.891 294.023 100.602C294.13 99.835 294.152 99.0582 294.089 98.286L288.018 103.227Z"
		fill="black" />
	<path d="M280.667 78.7834C278.501 81.4453 278.706 91.0749 283.292 91.1869C287.878 91.299 284.609 73.9266 280.667 78.7834Z" fill="#263238" />
	<path
		d="M300.421 85.789C299.963 93.0835 300.057 97.3706 296.377 101.144C290.847 106.813 281.881 103.554 280.153 96.2965C278.612 89.7585 279.621 78.9334 286.747 75.9727C288.303 75.3067 290.005 75.0537 291.688 75.2381C293.37 75.4225 294.977 76.038 296.352 77.0252C297.727 78.0123 298.824 79.3377 299.537 80.873C300.25 82.4083 300.554 84.1016 300.421 85.789Z"
		fill="#FFC3BD" />
	<path
		d="M296.833 79.7186C292.247 84.2672 298.206 87.6015 295.899 90.0486C300.224 92.3089 298.636 93.9714 298.636 93.9714C298.188 95.215 298.188 96.5759 298.636 97.8195C303.511 96.5679 312.562 80.3724 302.68 77.8879C296.768 80.5218 296.833 79.7186 296.833 79.7186Z"
		fill="#263238" />
	<path
		d="M298.712 82.9876C294.369 83.6601 288.905 81.5866 285.515 79.8307C282.124 78.0747 281.629 81.3904 282.881 82.3992C280.705 82.4739 277.949 80.7553 278.631 76.9166C279.257 73.4141 283.843 70.0984 290.371 73.0592C294.995 75.1513 300.692 72.396 302.915 74.8151C305.138 77.2341 301.608 82.5299 298.712 82.9876Z"
		fill="#263238" />
	<path d="M301.683 78.2326C304.597 77.8496 304.718 76.0097 303.906 72.7874C307.053 77.2612 305.774 78.6342 303.906 79.7176C301.823 79.0171 301.683 78.2326 301.683 78.2326Z" fill="#263238" />
	<path
		d="M302.384 91.3837C301.738 92.8106 300.611 93.9645 299.199 94.6434C297.397 95.4559 296.481 93.7934 296.967 91.8414C297.406 90.0761 298.835 87.5356 300.703 87.5543C302.571 87.573 303.197 89.5811 302.384 91.3837Z"
		fill="#FFC3BD" />
	<path
		d="M289.035 87.9929C289.035 88.5813 288.717 89.067 288.334 89.0764C287.952 89.0857 287.671 88.6 287.671 87.9929C287.671 87.3858 287.989 86.9188 288.372 86.9188C288.755 86.9188 289.035 87.3952 289.035 87.9929Z"
		fill="#263238" />
	<path
		d="M282.348 88.05C282.348 88.6477 282.03 89.1241 281.638 89.1334C281.246 89.1428 280.937 88.6571 280.947 88.0593C280.956 87.4616 281.255 86.9852 281.647 86.9852C282.04 86.9852 282.348 87.4616 282.348 88.05Z"
		fill="#263238" />
	<path d="M284.87 88.2549C284.172 90.074 283.229 91.7896 282.068 93.3545C282.47 93.6372 282.929 93.8294 283.413 93.9181C283.897 94.0067 284.394 93.9897 284.87 93.8682V88.2549Z" fill="#ED847E" />
	<path
		d="M287.225 95.4654C287.903 95.3895 288.558 95.1734 289.148 94.831C289.738 94.4885 290.25 94.0271 290.653 93.476C290.677 93.4376 290.686 93.391 290.676 93.3463C290.667 93.3016 290.64 93.2626 290.601 93.2378C290.563 93.2131 290.516 93.2046 290.472 93.2142C290.427 93.2238 290.388 93.2508 290.363 93.2892C289.914 93.8765 289.334 94.351 288.669 94.6752C288.004 94.9995 287.273 95.1645 286.534 95.1572C286.511 95.1572 286.488 95.1618 286.467 95.1708C286.446 95.1799 286.427 95.1931 286.411 95.2097C286.396 95.2263 286.383 95.246 286.376 95.2675C286.368 95.2889 286.364 95.3118 286.366 95.3347C286.366 95.3576 286.37 95.3802 286.379 95.4012C286.388 95.4223 286.402 95.4412 286.418 95.457C286.435 95.4727 286.454 95.4849 286.476 95.4928C286.497 95.5007 286.52 95.5041 286.543 95.5028C286.786 95.4654 287.01 95.4654 287.225 95.4654Z"
		fill="#263238" />
	<path
		d="M292.278 85.63C292.337 85.6267 292.393 85.6036 292.437 85.5646C292.474 85.5379 292.506 85.5038 292.529 85.4645C292.553 85.4252 292.568 85.3814 292.575 85.3359C292.581 85.2904 292.577 85.2441 292.565 85.1999C292.553 85.1557 292.531 85.1145 292.502 85.0789C292.182 84.6366 291.76 84.2772 291.273 84.0303C290.786 83.7834 290.247 83.6562 289.7 83.6592C289.655 83.6627 289.611 83.6752 289.571 83.6961C289.531 83.7169 289.495 83.7456 289.467 83.7805C289.438 83.8154 289.416 83.8557 289.404 83.8991C289.391 83.9424 289.387 83.9879 289.392 84.0328C289.401 84.1261 289.447 84.2122 289.518 84.2731C289.589 84.334 289.681 84.365 289.775 84.3597C290.209 84.3557 290.637 84.4573 291.023 84.6558C291.408 84.8544 291.74 85.1438 291.989 85.4992C292.023 85.5426 292.067 85.5771 292.117 85.5998C292.168 85.6226 292.223 85.6329 292.278 85.63Z"
		fill="#263238" />
	<path
		d="M279.64 85.9202C279.695 85.9126 279.748 85.8916 279.794 85.8591C279.839 85.8265 279.876 85.7834 279.901 85.7334C280.08 85.3292 280.351 84.973 280.694 84.6938C281.036 84.4146 281.44 84.2203 281.872 84.1269C281.918 84.1226 281.962 84.1087 282.002 84.0861C282.042 84.0634 282.077 84.0326 282.105 83.9956C282.132 83.9585 282.151 83.9162 282.161 83.8712C282.171 83.8262 282.171 83.7797 282.162 83.7346C282.146 83.6447 282.096 83.5641 282.024 83.5087C281.951 83.4534 281.86 83.4273 281.769 83.4358C281.225 83.5432 280.714 83.7789 280.278 84.1232C279.843 84.4676 279.496 84.9107 279.266 85.4158C279.227 85.4991 279.222 85.5943 279.251 85.6814C279.281 85.7686 279.343 85.8408 279.425 85.8828C279.492 85.914 279.566 85.9269 279.64 85.9202Z"
		fill="#263238" />
	<path
		d="M313.601 118.068C314.74 120.468 315.693 122.738 316.627 125.073C317.561 127.408 318.392 129.79 319.223 132.171C320.854 137.025 322.171 141.98 323.165 147.003C323.38 148.301 323.622 149.572 323.781 150.907L323.903 151.897L323.968 152.392V152.644V152.99C324.061 153.956 324.061 154.929 323.968 155.895C323.752 158.009 323.024 160.038 321.848 161.807C320.745 163.427 319.297 164.783 317.608 165.777C316.2 166.603 314.685 167.232 313.106 167.645C311.7 168.03 310.262 168.286 308.809 168.41C306.07 168.669 303.309 168.56 300.599 168.084C299.864 167.96 299.195 167.585 298.706 167.023C298.217 166.46 297.939 165.745 297.919 165C297.899 164.256 298.139 163.527 298.597 162.939C299.056 162.351 299.704 161.941 300.431 161.779L300.767 161.704C301.701 161.489 302.925 161.228 303.971 160.948C305.017 160.668 306.082 160.341 307.072 160.014C308.801 159.46 310.403 158.572 311.789 157.399C312.155 157.059 312.434 156.636 312.601 156.166C312.667 155.836 312.667 155.496 312.601 155.166C312.57 154.915 312.523 154.665 312.461 154.419L312.125 152.897C311.91 151.832 311.602 150.73 311.322 149.646C310.743 147.451 310.089 145.257 309.342 143.052C308.594 140.848 307.829 138.653 307.016 136.458C306.203 134.263 305.344 132.068 304.475 129.92C303.607 127.772 302.692 125.512 301.823 123.466V123.373C301.124 121.815 301.073 120.043 301.681 118.447C302.289 116.852 303.506 115.563 305.064 114.864C306.622 114.166 308.394 114.115 309.989 114.722C311.585 115.33 312.874 116.547 313.573 118.105L313.601 118.068Z"
		fill="#263238" />
	<path d="M297.646 164.47L293.527 166.45L300.645 168.981C300.645 168.981 305.389 167.468 303.092 164.834L301.812 164.433C299.757 163.76 298.749 163.835 297.646 164.47Z" fill="#FFC3BD" />
	<path
		d="M294.08 171.475L297.209 172.072C297.656 172.154 298.118 172.095 298.529 171.903C298.941 171.71 299.283 171.394 299.506 170.998L300.646 168.953L293.529 166.45L292.595 168.402C292.45 168.697 292.374 169.021 292.373 169.35C292.372 169.679 292.446 170.004 292.589 170.3C292.732 170.596 292.941 170.856 293.199 171.059C293.457 171.263 293.758 171.405 294.08 171.475Z"
		fill="#FFC3BD" />
</svg>
