<svg xmlns="http://www.w3.org/2000/svg" width="79.92" height="76.01" overflow="visible">
	<path
		d="M72.22 36.67c-1.43.35-2.88.7-4.3 1.09-2.88.79-5.67 1.95-7.89 4.01-3.5 3.25-4.91 7.97-5.87 12.51-.61 2.91-1 5.86-1.42 8.8-.81 5.73-1.88 8.15-1.88 8.15s-.99-2.42-1.8-8.15c-.41-2.94-.81-5.89-1.42-8.8-.95-4.54-2.37-9.26-5.87-12.51-2.21-2.06-5.01-3.22-7.89-4.01-1.42-.39-2.87-.74-4.3-1.09-1.36-.33-6.28-.99-7.7-.99 1.41 0 6.34-.67 7.7-1.01 1.43-.35 2.88-.71 4.3-1.1 2.88-.79 5.67-1.95 7.89-4.01 3.5-3.25 4.91-7.97 5.87-12.52.61-2.91 1-5.86 1.42-8.8.84-5.96 1.8-8.24 1.8-8.24s1.04 2.29 1.88 8.24c.42 2.94.81 5.89 1.42 8.8.95 4.54 2.37 9.27 5.87 12.52 2.22 2.06 5.01 3.22 7.89 4.01 1.42.39 2.87.75 4.3 1.1 1.36.34 6.28 1.01 7.7 1.01-1.42 0-6.34.66-7.7.99zm-37.4 23.48c-.66.16-1.33.32-1.99.5-1.33.36-2.62.89-3.64 1.84-1.62 1.49-2.27 3.66-2.71 5.74-.28 1.33-.47 2.69-.66 4.04-.38 2.63-.87 3.74-.87 3.74s-.46-1.11-.83-3.74c-.19-1.35-.38-2.7-.66-4.04-.44-2.08-1.09-4.25-2.71-5.74-1.02-.94-2.31-1.47-3.64-1.84-.66-.18-1.32-.34-1.99-.5-1.17-.23-2.36-.38-3.55-.45 1.19-.08 2.38-.23 3.55-.46.66-.16 1.33-.33 1.99-.51 1.33-.36 2.62-.89 3.64-1.84 1.61-1.49 2.27-3.66 2.71-5.74.28-1.33.46-2.69.66-4.04.39-2.73.83-3.78.83-3.78s.48 1.05.87 3.78c.19 1.35.37 2.7.66 4.04.44 2.08 1.09 4.25 2.71 5.74 1.02.95 2.31 1.48 3.64 1.84.66.18 1.32.35 1.99.51 1.17.23 2.36.39 3.55.46-1.19.07-2.38.22-3.55.45zM23.24 17.72c-.66.16-1.33.32-1.99.5-1.33.36-2.62.89-3.64 1.84-1.62 1.49-2.27 3.66-2.71 5.74-.28 1.33-.46 2.69-.66 4.04-.37 2.63-.87 3.74-.87 3.74s-.46-1.11-.83-3.74c-.19-1.35-.38-2.7-.66-4.04-.44-2.08-1.09-4.25-2.71-5.74-1.02-.94-2.31-1.47-3.64-1.84-.66-.18-1.32-.34-1.99-.5-1.16-.22-2.35-.38-3.54-.45 1.19-.08 2.38-.23 3.55-.46.66-.16 1.33-.33 1.99-.51 1.33-.36 2.62-.89 3.64-1.84 1.61-1.49 2.27-3.66 2.71-5.74.28-1.33.46-2.69.66-4.04.39-2.73.83-3.78.83-3.78s.48 1.05.87 3.78c.19 1.35.37 2.7.66 4.04.44 2.08 1.09 4.25 2.71 5.74 1.02.95 2.31 1.48 3.64 1.84.66.18 1.32.34 1.99.51 1.17.23 2.36.38 3.55.46-1.2.07-2.39.23-3.56.45z"
		fill-rule="evenodd" clip-rule="evenodd" fill="#FBBC79" />
</svg>
